<svg width="10" height="20" viewBox="0 0 10 20" fill="none" xmlns="http://www.w3.org/2000/svg">
<path d="M0.49197 0.49998H0.39197V0.59998V8.99998V9.09998H0.49197H1.81197H1.91197V8.99998V5.31998H3.12797V8.99998V9.09998H3.22797H4.54797H4.64797V8.99998V0.59998V0.49998H4.54797H3.22797H3.12797V0.59998V3.91998H1.91197V0.59998V0.49998H1.81197H0.49197ZM0.874117 18.6474L0.874864 18.6482C1.23502 19.0341 1.75301 19.22 2.41197 19.22C3.07093 19.22 3.58892 19.0341 3.94908 18.6482L3.94982 18.6474C4.30796 18.2552 4.47997 17.7037 4.47997 17.008V10.6V10.5H4.37997H3.10797H3.00797V10.6V17.104C3.00797 17.3819 2.9494 17.5589 2.85502 17.6596L2.85497 17.6595L2.85271 17.6621C2.76459 17.7628 2.63149 17.82 2.43597 17.82C2.24157 17.82 2.10295 17.7634 2.00613 17.6609C1.91859 17.5599 1.86397 17.3821 1.86397 17.104V10.6V10.5H1.76397H0.44397H0.34397V10.6V17.008C0.34397 17.7037 0.515985 18.2552 0.874117 18.6474ZM5.65424 18.6474L5.65499 18.6482C6.01514 19.0341 6.53313 19.22 7.19209 19.22C7.85106 19.22 8.36904 19.0341 8.7292 18.6482L8.72994 18.6474C9.08808 18.2552 9.2601 17.7037 9.2601 17.008V14.26V14.16H9.1601H7.25209H7.15209V14.26V15.46V15.56H7.25209H7.81209V17.104C7.81209 17.3644 7.75714 17.5412 7.66446 17.6517C7.5746 17.7589 7.43559 17.82 7.22809 17.82C7.0206 17.82 6.88159 17.7589 6.79173 17.6517C6.69905 17.5412 6.64409 17.3644 6.64409 17.104V12.508C6.64409 12.2432 6.69916 12.0633 6.79219 11.9507C6.8822 11.8417 7.02108 11.78 7.22809 11.78C7.43511 11.78 7.57399 11.8417 7.664 11.9507C7.75703 12.0633 7.81209 12.2432 7.81209 12.508V13.312V13.412H7.91209H9.1601H9.2601V13.312V12.592C9.2601 11.8966 9.08826 11.3487 8.72957 10.9641C8.36959 10.5701 7.85148 10.38 7.19209 10.38C6.53271 10.38 6.0146 10.5701 5.65462 10.9641C5.29592 11.3487 5.12409 11.8966 5.12409 12.592V17.008C5.12409 17.7037 5.29611 18.2552 5.65424 18.6474ZM5.87798 8.63627C6.24594 9.0299 6.77173 9.21998 7.43903 9.21998C8.10634 9.21998 8.63212 9.0299 9.00008 8.63627C9.36652 8.24426 9.54303 7.69668 9.54303 7.00798V2.59198C9.54303 1.90328 9.36652 1.3557 9.00008 0.963692C8.63212 0.570059 8.10634 0.37998 7.43903 0.37998C6.77173 0.37998 6.24594 0.570059 5.87798 0.963692C5.51154 1.3557 5.33503 1.90328 5.33503 2.59198V7.00798C5.33503 7.69668 5.51154 8.24426 5.87798 8.63627ZM8.02303 7.09198C8.02303 7.35672 7.96797 7.53668 7.87494 7.64929C7.78493 7.75825 7.64605 7.81998 7.43903 7.81998C7.23201 7.81998 7.09314 7.75825 7.00313 7.64929C6.9101 7.53668 6.85503 7.35672 6.85503 7.09198V2.50798C6.85503 2.24324 6.9101 2.06328 7.00313 1.95067C7.09314 1.84171 7.23201 1.77998 7.43903 1.77998C7.64605 1.77998 7.78493 1.84171 7.87494 1.95067C7.96797 2.06328 8.02303 2.24324 8.02303 2.50798V7.09198Z" fill="black" stroke="black" stroke-width="0.2"/>
</svg>
